<?xml version="1.0" encoding="UTF-8"?>
<svg width="374px" height="128px" viewBox="0 0 374 128" version="1.1" xmlns="http://www.w3.org/2000/svg" xmlns:xlink="http://www.w3.org/1999/xlink">
    <!-- Generator: Sketch 39.1 (31720) - http://www.bohemiancoding.com/sketch -->
    <title>Untitled</title>
    <desc>Created with Sketch.</desc>
    <defs>
        <polygon id="path-1" points="186.8885 0.896 0.06 0.896 0.06 109.324 373.717 109.324 373.717 0.896"></polygon>
    </defs>
    <g id="Page-1" stroke="none" stroke-width="1" fill="none" fill-rule="evenodd">
        <g id="Deque-4C">
            <path d="M101.815,53.927 C105.61,50.519 110.143,48.862 115.673,48.862 C121.692,48.862 126.39,50.397 130.032,53.553 C132.97,56.104 135.207,59.763 136.705,64.461 L95.527,64.461 C96.685,60.143 98.759,56.675 101.815,53.927 L101.815,53.927 Z M116.913,35.085 C106.247,35.085 97.338,38.612 90.434,45.569 C83.543,52.524 80.048,61.404 80.048,71.961 C80.048,82.091 83.609,90.887 90.63,98.102 C97.668,105.341 106.4,109.011 116.585,109.011 C124.263,109.011 131.131,106.898 136.999,102.726 C142.811,98.593 147.37,92.626 150.55,84.992 L152.274,80.851 L136.501,80.851 L135.691,82.564 C133.835,86.489 131.182,89.585 127.803,91.769 C124.401,93.969 120.66,95.039 116.364,95.039 C110.262,95.039 105.333,93.194 101.298,89.4 C97.972,86.267 95.902,82.4 95.019,77.638 L152.777,77.638 L152.777,74.04 C152.777,62.66 149.426,53.241 142.816,46.045 C136.137,38.772 127.421,35.085 116.913,35.085 L116.913,35.085 Z" id="Fill-1" fill="#004A86"></path>
            <path d="M178.895,55.801 C183.196,51.267 188.247,49.063 194.338,49.063 C199.878,49.063 204.67,51.268 208.986,55.805 C213.347,60.385 215.467,65.582 215.467,71.69 C215.467,78.333 213.348,83.848 208.987,88.554 C204.697,93.187 199.83,95.439 194.104,95.439 C188.113,95.439 183.121,93.302 178.839,88.906 C174.537,84.494 172.445,79.21 172.445,72.753 C172.445,65.923 174.555,60.378 178.895,55.801 L178.895,55.801 Z M215.225,42.626 C213.402,41.126 211.415,39.845 209.273,38.793 C204.801,36.599 199.844,35.486 194.541,35.486 C184.131,35.486 175.321,39.057 168.355,46.1 C161.399,53.131 157.872,61.979 157.872,72.397 C157.872,82.648 161.324,91.4 168.13,98.412 C174.961,105.445 183.61,109.011 193.837,109.011 C199.287,109.011 204.393,107.919 209.016,105.765 C211.271,104.712 213.346,103.441 215.225,101.961 L215.225,128 L229.604,128 L229.604,36.887 L215.225,36.887 L215.225,42.626 L215.225,42.626 Z" id="Fill-2" fill="#004A86"></path>
            <path d="M282.163,71.573 C282.163,77.025 281.964,80.851 281.57,82.941 C281.202,84.886 280.612,86.572 279.848,87.9 C278.4,90.3 276.557,92.082 274.22,93.341 C271.869,94.6 269.06,95.238 265.869,95.238 C260.286,95.238 256.472,93.824 254.207,90.914 C251.797,87.818 250.574,82.157 250.574,74.089 L250.574,36.887 L236.396,36.887 L236.396,73.507 C236.396,85.972 238.627,94.765 243.215,100.386 C247.884,106.11 255.418,109.011 265.606,109.011 C270.368,109.011 274.536,108.237 277.994,106.709 C279.438,106.071 280.829,105.267 282.163,104.301 L282.163,107.214 L296.338,107.214 L296.338,36.887 L282.163,36.887 L282.163,71.573" id="Fill-3" fill="#004A86"></path>
            <g id="Group-7">
                <mask id="mask-2" fill="white">
                    <use xlink:href="#path-1"></use>
                </mask>
                <g id="Clip-5"></g>
                <path d="M322.759,53.926 C326.551,50.519 331.082,48.862 336.613,48.862 C342.632,48.862 347.33,50.397 350.973,53.552 C353.911,56.105 356.147,59.765 357.645,64.461 L316.465,64.461 C317.625,60.141 319.7,56.674 322.759,53.926 L322.759,53.926 Z M373.717,74.04 C373.717,62.658 370.365,53.239 363.757,46.045 C357.077,38.772 348.361,35.085 337.852,35.085 C327.185,35.085 318.277,38.612 311.375,45.569 C304.482,52.521 300.987,61.401 300.987,71.961 C300.987,82.091 304.548,90.886 311.569,98.102 C318.609,105.341 327.343,109.011 337.526,109.011 C345.204,109.011 352.071,106.898 357.939,102.727 C363.75,98.595 368.309,92.628 371.489,84.992 L373.214,80.851 L357.442,80.851 L356.632,82.562 C354.772,86.489 352.119,89.586 348.746,91.768 C345.342,93.969 341.598,95.039 337.301,95.039 C331.2,95.039 326.272,93.194 322.238,89.401 C318.912,86.267 316.842,82.397 315.959,77.638 L373.717,77.638 L373.717,74.04 L373.717,74.04 Z" id="Fill-4" fill="#004A86" mask="url(#mask-2)"></path>
                <path d="M73.96,72.007 L73.96,0.896 L55.89,0.896 L55.89,40.584 C50.354,37.277 43.89,35.371 36.986,35.371 C16.592,35.371 0,51.962 0,72.353 C0,92.743 16.592,109.324 36.986,109.324 C40.772,109.324 44.426,108.751 47.867,107.69 L47.913,92.47 C44.672,94.233 40.959,95.235 37.018,95.235 C24.398,95.235 14.132,84.97 14.132,72.353 C14.132,59.737 24.398,49.473 37.018,49.473 C49.634,49.473 59.898,59.737 59.898,72.353 C59.898,72.82 59.879,73.284 59.852,73.744 L59.844,101.384 C68.194,94.796 73.649,84.694 73.944,73.324 L73.96,73.324 L73.96,72.699 C73.961,72.584 73.969,72.469 73.969,72.353 C73.969,72.237 73.961,72.123 73.96,72.007" id="Fill-6" fill="#84BF41" mask="url(#mask-2)"></path>
            </g>
            <path d="M37.018,83.933 C30.63,83.933 25.434,78.738 25.434,72.353 C25.434,65.969 30.63,60.775 37.018,60.775 C43.401,60.775 48.595,65.969 48.595,72.353 C48.595,78.738 43.401,83.933 37.018,83.933" id="Fill-8" fill="#004A86"></path>
        </g>
    </g>
</svg>